<?xml version="1.0" encoding="UTF-8" standalone="no"?>
<svg
   xmlns:dc="http://purl.org/dc/elements/1.1/"
   xmlns:cc="http://creativecommons.org/ns#"
   xmlns:rdf="http://www.w3.org/1999/02/22-rdf-syntax-ns#"
   xmlns:svg="http://www.w3.org/2000/svg"
   xmlns="http://www.w3.org/2000/svg"
   xmlns:sodipodi="http://sodipodi.sourceforge.net/DTD/sodipodi-0.dtd"
   xmlns:inkscape="http://www.inkscape.org/namespaces/inkscape"
   inkscape:version="1.0 (4035a4fb49, 2020-05-01)"
   sodipodi:docname="procedural_api_overview.svg"
   viewBox="0 0 670.30768 274.57632"
   height="274.57632"
   width="670.30768"
   xml:space="preserve"
   id="svg2848"
   version="1.1"><metadata
     id="metadata2854"><rdf:RDF><cc:Work
         rdf:about=""><dc:format>image/svg+xml</dc:format><dc:type
           rdf:resource="http://purl.org/dc/dcmitype/StillImage" /><dc:title></dc:title></cc:Work></rdf:RDF></metadata><defs
     id="defs2852" /><sodipodi:namedview
     inkscape:current-layer="g2858"
     inkscape:window-maximized="0"
     inkscape:window-y="98"
     inkscape:window-x="8"
     inkscape:cy="108.07039"
     inkscape:cx="255.77094"
     inkscape:zoom="1.8333096"
     showgrid="false"
     id="namedview2850"
     inkscape:window-height="953"
     inkscape:window-width="1900"
     inkscape:pageshadow="2"
     inkscape:pageopacity="0"
     guidetolerance="10"
     gridtolerance="10"
     objecttolerance="10"
     borderopacity="1"
     bordercolor="#666666"
     pagecolor="#ffffff" /><g
     transform="matrix(1.3333333,0,0,1.3333333,0,2.1977417e-6)"
     inkscape:label="procedural_api_overview"
     inkscape:groupmode="layer"
     id="g2856"><g
       id="g2858"><g
         id="g2860"><path
           id="path2862"
           style="fill:#e6e6e6;fill-opacity:1;fill-rule:nonzero;stroke:#000000;stroke-width:0.491054;stroke-linecap:butt;stroke-linejoin:miter;stroke-miterlimit:4;stroke-dasharray:none;stroke-opacity:1"
           d="M 6.281,36.141 H 148.906 V 93.446 H 6.281 Z" /></g><text
         id="text2866"
         style="font-variant:normal;font-weight:bold;font-size:12px;font-family:'DejaVu Sans Mono';-inkscape-font-specification:DejaVuSansMono-Bold;writing-mode:lr-tb;fill:#000000;fill-opacity:1;fill-rule:nonzero;stroke:none"
         transform="translate(13.645885,23.929079)"><tspan
           id="tspan2864"
           sodipodi:role="line"
           y="0"
           x="0 7.2239938 14.447988 21.671982 28.895975 36.119968 43.343964 50.567959 57.79195 65.015945">diagram.py</tspan></text><text
         id="text2874"
         style="font-variant:normal;font-weight:normal;font-size:12px;font-family:'DejaVu Sans Mono';-inkscape-font-specification:DejaVuSansMono;writing-mode:lr-tb;fill:#000000;fill-opacity:1;fill-rule:nonzero;stroke:none"
         transform="translate(13.645885,53.929054)"><tspan
           id="tspan2868"
           sodipodi:role="line"
           y="0"
           x="0 7.2239938 14.447988 21.671982 28.895975 36.119968 43.343964 50.567959 57.79195 65.015945 72.239937 79.463936 86.687927 93.911919 101.13592 108.35991 115.5839 122.8079">create_canvas(...)</tspan><tspan
           id="tspan2870"
           sodipodi:role="line"
           y="14.999987"
           x="0 7.2239938 14.447988 21.671982 28.895975 36.119968 43.343964 50.567959 57.79195">draw(...)</tspan><tspan
           id="tspan2872"
           sodipodi:role="line"
           y="29.999975"
           x="0 7.2239938 14.447988 21.671982 28.895975 36.119968 43.343964 50.567959 57.79195">show(...)</tspan></text><g
         id="g2876"><path
           id="path2878"
           style="fill:#e6e6e6;fill-opacity:1;fill-rule:nonzero;stroke:#000000;stroke-width:0.563088;stroke-linecap:butt;stroke-linejoin:miter;stroke-miterlimit:4;stroke-dasharray:none;stroke-opacity:1"
           d="m 163.797,35.457 h 157.59 v 68.191 h -157.59 z" /></g><text
         id="text2882"
         style="font-variant:normal;font-weight:bold;font-size:12px;font-family:'DejaVu Sans Mono';-inkscape-font-specification:DejaVuSansMono-Bold;writing-mode:lr-tb;fill:#000000;fill-opacity:1;fill-rule:nonzero;stroke:none"
         transform="translate(169.09839,22.599003)"><tspan
           id="tspan2880"
           sodipodi:role="line"
           y="0"
           x="0 7.2239938 14.447988 21.671982 28.895975 36.119968 43.343964 50.567959 57.79195 65.015945 72.239937 79.463936 86.687927">components.py</tspan></text><text
         id="text2892"
         style="font-variant:normal;font-weight:normal;font-size:12px;font-family:'DejaVu Sans Mono';-inkscape-font-specification:DejaVuSansMono;writing-mode:lr-tb;fill:#000000;fill-opacity:1;fill-rule:nonzero;stroke:none"
         transform="translate(169.09839,52.598978)"><tspan
           id="tspan2884"
           sodipodi:role="line"
           y="0"
           x="0 7.2239938 14.447988 21.671982 28.895975 36.119968 43.343964 50.567959 57.79195 65.015945 72.239937 79.463936 86.687927 93.911919 101.13592 108.35991 115.5839">create_arrow(...)</tspan><tspan
           id="tspan2886"
           sodipodi:role="line"
           y="14.999987"
           x="0 7.2239938 14.447988 21.671982 28.895975 36.119968 43.343964 50.567959 57.79195 65.015945 72.239937 79.463936 86.687927 93.911919 101.13592 108.35991">create_node(...)</tspan><tspan
           id="tspan2888"
           sodipodi:role="line"
           y="29.999975"
           x="0 7.2239938 14.447988 21.671982 28.895975 36.119968 43.343964 50.567959 57.79195 65.015945 72.239937 79.463936 86.687927 93.911919 101.13592 108.35991 115.5839 122.8079 130.03189 137.25589 144.47987">create_rectangle(...)</tspan><tspan
           id="tspan3499"
           sodipodi:role="line"
           y="29.999975"
           x="0 7.2239938 14.447988 21.671982 28.895975 36.119968 43.343964 50.567959 57.79195 65.015945 72.239937 79.463936 86.687927 93.911919 101.13592 108.35991 115.5839 122.8079 130.03189 137.25589 144.47987" /><tspan
           id="tspan3485"
           sodipodi:role="line"
           y="29.999975"
           x="0 7.2239938 14.447988 21.671982 28.895975 36.119968 43.343964 50.567959 57.79195 65.015945 72.239937 79.463936 86.687927 93.911919 101.13592 108.35991 115.5839 122.8079 130.03189 137.25589 144.47987" /><tspan
           id="tspan3487"
           sodipodi:role="line"
           y="29.999975"
           x="0 7.2239938 14.447988 21.671982 28.895975 36.119968 43.343964 50.567959 57.79195 65.015945 72.239937 79.463936 86.687927 93.911919 101.13592 108.35991 115.5839 122.8079 130.03189 137.25589 144.47987" /><tspan
           id="tspan3489"
           sodipodi:role="line"
           y="29.999975"
           x="0 7.2239938 14.447988 21.671982 28.895975 36.119968 43.343964 50.567959 57.79195 65.015945 72.239937 79.463936 86.687927 93.911919 101.13592 108.35991 115.5839 122.8079 130.03189 137.25589 144.47987" /><tspan
           y="104.99998"
           x="0"
           id="tspan2890"
           sodipodi:role="line"></tspan><tspan
           y="119.99998"
           x="0"
           id="tspan3491"
           sodipodi:role="line"></tspan><tspan
           y="134.99997"
           x="0"
           id="tspan3493"
           sodipodi:role="line"></tspan><tspan
           id="tspan3495"
           sodipodi:role="line"
           y="44.999962"
           x="0 7.2239938 14.447988 21.671982 28.895975 36.119968 43.343964 50.567959 57.79195 65.015945 72.239937 79.463936 86.687927 93.911919 101.13592 108.35991">create_text(...)</tspan><tspan
           id="tspan3497"
           sodipodi:role="line"
           y="44.999962 44.999962"
           x="0 0 7.2239938 14.447988 21.671982 28.895975 36.119968 43.343964 50.567959 57.79195 65.015945 72.239937 79.463936 86.687927 93.911919 101.13592 108.35991">c</tspan></text><g
         id="g2894"><path
           id="path2896"
           style="fill:#e6e6e6;fill-opacity:1;fill-rule:nonzero;stroke:#000000;stroke-width:0.564094;stroke-linecap:butt;stroke-linejoin:miter;stroke-miterlimit:4;stroke-dasharray:none;stroke-opacity:1"
           d="m 328.844,35.02 h 165 v 166.461 h -165 z" /></g><text
         id="text2900"
         style="font-variant:normal;font-weight:bold;font-size:12px;font-family:'DejaVu Sans Mono';-inkscape-font-specification:DejaVuSansMono-Bold;writing-mode:lr-tb;fill:#000000;fill-opacity:1;fill-rule:nonzero;stroke:none"
         transform="translate(332.11238,23.929079)"><tspan
           id="tspan2898"
           sodipodi:role="line"
           y="0"
           x="0 7.2239938 14.447988 21.671982 28.895975 36.119968 43.343964 50.567959 57.79195 65.015945 72.239937 79.463936 86.687927 93.911919">coordinates.py</tspan></text><text
         id="text2922"
         style="font-variant:normal;font-weight:normal;font-size:12px;font-family:'DejaVu Sans Mono';-inkscape-font-specification:DejaVuSansMono;writing-mode:lr-tb;fill:#000000;fill-opacity:1;fill-rule:nonzero;stroke:none"
         transform="translate(332.11238,53.929054)"><tspan
           id="tspan2902"
           sodipodi:role="line"
           y="0"
           x="0 7.2239938 14.447988 21.671982 28.895975 36.119968 43.343964 50.567959 57.79195 65.015945 72.239937 79.463936 86.687927 93.911919 101.13592 108.35991 115.5839 122.8079 130.03189 137.25589">add_coordinates(...)</tspan><tspan
           id="tspan2904"
           sodipodi:role="line"
           y="14.999987"
           x="0 7.2239938 14.447988 21.671982 28.895975 36.119968 43.343964 50.567959 57.79195 65.015945 72.239937 79.463936 86.687927 93.911919 101.13592 108.35991 115.5839 122.8079 130.03189 137.25589 144.47987 151.70387">scale_coordinates(...)</tspan><tspan
           id="tspan2906"
           sodipodi:role="line"
           y="29.999975"
           x="0 7.2239938 14.447988 21.671982 28.895975 36.119968 43.343964 50.567959 57.79195">left(...)</tspan><tspan
           id="tspan2908"
           sodipodi:role="line"
           y="44.999962"
           x="0 7.2239938 14.447988 21.671982 28.895975 36.119968 43.343964 50.567959 57.79195 65.015945 72.239937 79.463936 86.687927">top_left(...)</tspan><tspan
           id="tspan2910"
           sodipodi:role="line"
           y="59.99995"
           x="0 7.2239938 14.447988 21.671982 28.895975 36.119968 43.343964 50.567959">top(...)</tspan><tspan
           id="tspan2912"
           sodipodi:role="line"
           y="74.999939"
           x="0 7.2239938 14.447988 21.671982 28.895975 36.119968 43.343964 50.567959 57.79195 65.015945 72.239937 79.463936 86.687927 93.911919">top_right(...)</tspan><tspan
           id="tspan2914"
           sodipodi:role="line"
           y="89.999924"
           x="0 7.2239938 14.447988 21.671982 28.895975 36.119968 43.343964 50.567959 57.79195 65.015945">right(...)</tspan><tspan
           id="tspan2916"
           sodipodi:role="line"
           y="104.99991"
           x="0 7.2239938 14.447988 21.671982 28.895975 36.119968 43.343964 50.567959 57.79195 65.015945 72.239937 79.463936 86.687927 93.911919 101.13592 108.35991 115.5839">bottom_right(...)</tspan><tspan
           id="tspan2918"
           sodipodi:role="line"
           y="119.9999"
           x="0 7.2239938 14.447988 21.671982 28.895975 36.119968 43.343964 50.567959 57.79195 65.015945 72.239937">bottom(...)</tspan><tspan
           id="tspan2920"
           sodipodi:role="line"
           y="134.99989"
           x="0 7.2239938 14.447988 21.671982 28.895975 36.119968 43.343964 50.567959 57.79195 65.015945 72.239937 79.463936 86.687927 93.911919 101.13592 108.35991">bottom_left(...)</tspan></text></g></g></svg>
